<?xml version="1.0" encoding="UTF-8"?>
<svg width="1400" height="1120" xmlns="http://www.w3.org/2000/svg">
  <defs>
    <style>
      .title { font-family: 'Segoe UI', Arial, sans-serif; font-size: 32px; font-weight: bold; fill: #000000; }
      .subtitle { font-family: 'Segoe UI', Arial, sans-serif; font-size: 20px; font-weight: 600; fill: #000000; }
      .layer-title { font-family: 'Segoe UI', Arial, sans-serif; font-size: 18px; font-weight: bold; fill: #000000; }
      .text { font-family: 'Segoe UI', Arial, sans-serif; font-size: 14px; font-weight: 600; fill: #000000; }
      .small-text { font-family: 'Segoe UI', Arial, sans-serif; font-size: 12px; font-weight: 500; fill: #000000; }
      .tiny-text { font-family: 'Segoe UI', Arial, sans-serif; font-size: 11px; font-weight: 500; fill: #000000; }
      .white-text { fill: #000000; font-weight: bold; font-size: 14px; }
      .black-text { fill: #000000; font-weight: bold; font-size: 14px; }
      
      /* 渐变定义 */
      .user-gradient { fill: url(#userGrad); stroke: #6b46c1; stroke-width: 2; rx: 12; }
      .frontend-gradient { fill: url(#frontendGrad); stroke: #0c4a6e; stroke-width: 2; rx: 10; }
      .backend-gradient { fill: url(#backendGrad); stroke: #991b1b; stroke-width: 2; rx: 10; }
      .database-gradient { fill: url(#databaseGrad); stroke: #166534; stroke-width: 2; rx: 10; }
      .api-gradient { fill: url(#apiGrad); stroke: #ea580c; stroke-width: 2; rx: 10; }
      .infra-gradient { fill: url(#infraGrad); stroke: #7c2d12; stroke-width: 2; rx: 10; }
      
      .layer-bg { fill: #f8fafc; stroke: #e2e8f0; stroke-width: 2; rx: 15; }
      .connector { stroke: #475569; stroke-width: 3; fill: none; marker-end: url(#arrowhead); }
      .data-flow { stroke: #f59e0b; stroke-width: 3; fill: none; stroke-dasharray: 8,4; marker-end: url(#dataArrow); }
      
      /* 阴影 */
      .shadow { filter: drop-shadow(2px 4px 6px rgba(0,0,0,0.1)); }
    </style>
    
    <!-- 渐变定义 -->
    <linearGradient id="userGrad" x1="0%" y1="0%" x2="100%" y2="100%">
      <stop offset="0%" style="stop-color:#8b5cf6;stop-opacity:1" />
      <stop offset="100%" style="stop-color:#a855f7;stop-opacity:1" />
    </linearGradient>
    <linearGradient id="frontendGrad" x1="0%" y1="0%" x2="100%" y2="100%">
      <stop offset="0%" style="stop-color:#0ea5e9;stop-opacity:1" />
      <stop offset="100%" style="stop-color:#0284c7;stop-opacity:1" />
    </linearGradient>
    <linearGradient id="backendGrad" x1="0%" y1="0%" x2="100%" y2="100%">
      <stop offset="0%" style="stop-color:#dc2626;stop-opacity:1" />
      <stop offset="100%" style="stop-color:#b91c1c;stop-opacity:1" />
    </linearGradient>
    <linearGradient id="databaseGrad" x1="0%" y1="0%" x2="100%" y2="100%">
      <stop offset="0%" style="stop-color:#16a34a;stop-opacity:1" />
      <stop offset="100%" style="stop-color:#15803d;stop-opacity:1" />
    </linearGradient>
    <linearGradient id="apiGrad" x1="0%" y1="0%" x2="100%" y2="100%">
      <stop offset="0%" style="stop-color:#f97316;stop-opacity:1" />
      <stop offset="100%" style="stop-color:#ea580c;stop-opacity:1" />
    </linearGradient>
    <linearGradient id="infraGrad" x1="0%" y1="0%" x2="100%" y2="100%">
      <stop offset="0%" style="stop-color:#a16207;stop-opacity:1" />
      <stop offset="100%" style="stop-color:#92400e;stop-opacity:1" />
    </linearGradient>
    
    <!-- 箭头标记 -->
    <marker id="arrowhead" markerWidth="12" markerHeight="8" refX="11" refY="4" orient="auto">
      <polygon points="0 0, 12 4, 0 8" fill="#475569" />
    </marker>
    <marker id="dataArrow" markerWidth="12" markerHeight="8" refX="11" refY="4" orient="auto">
      <polygon points="0 0, 12 4, 0 8" fill="#f59e0b" />
    </marker>
  </defs>

  <!-- 背景渐变 -->
  <rect width="100%" height="100%" fill="url(#bgGrad)" />
  
  <!-- 标题区域 -->
  <rect x="50" y="20" width="1300" height="80" fill="white" stroke="#e2e8f0" stroke-width="2" rx="15" class="shadow"/>
  <text x="700" y="50" text-anchor="middle" class="title">Bitcoin挖矿计算器系统架构</text>
  <text x="700" y="75" text-anchor="middle" class="subtitle">Bitcoin Mining Calculator System Architecture</text>

  <!-- 用户访问层 -->
  <rect x="80" y="120" width="1240" height="100" class="layer-bg shadow"/>
  <text x="100" y="145" class="layer-title">👥 用户访问层 (User Access Layer)</text>
  
  <!-- 角色权限卡片 -->
  <g transform="translate(120, 165)">
    <rect x="0" y="0" width="180" height="45" class="user-gradient shadow"/>
    <text x="90" y="20" text-anchor="middle" class="white-text">Owner 所有者</text>
    <text x="90" y="35" text-anchor="middle" class="tiny-text" fill="rgba(0,0,0,1)">完全访问权限</text>
  </g>
  
  <g transform="translate(320, 165)">
    <rect x="0" y="0" width="180" height="45" class="user-gradient shadow"/>
    <text x="90" y="20" text-anchor="middle" class="white-text">Admin 管理员</text>
    <text x="90" y="35" text-anchor="middle" class="tiny-text" fill="rgba(0,0,0,1)">高级管理权限</text>
  </g>
  
  <g transform="translate(520, 165)">
    <rect x="0" y="0" width="180" height="45" class="user-gradient shadow"/>
    <text x="90" y="20" text-anchor="middle" class="white-text">Mining Site 矿场主</text>
    <text x="90" y="35" text-anchor="middle" class="tiny-text" fill="rgba(0,0,0,0.8)">业务操作权限</text>
  </g>
  
  <g transform="translate(720, 165)">
    <rect x="0" y="0" width="180" height="45" class="user-gradient shadow"/>
    <text x="90" y="20" text-anchor="middle" class="white-text">Manager 经理</text>
    <text x="90" y="35" text-anchor="middle" class="tiny-text" fill="rgba(0,0,0,0.8)">CRM专用权限</text>
  </g>
  
  <g transform="translate(920, 165)">
    <rect x="0" y="0" width="180" height="45" class="user-gradient shadow"/>
    <text x="90" y="20" text-anchor="middle" class="white-text">Guest 访客</text>
    <text x="90" y="35" text-anchor="middle" class="tiny-text" fill="rgba(0,0,0,0.8)">基础功能权限</text>
  </g>

  <!-- 前端展示层 -->
  <rect x="80" y="240" width="1240" height="120" class="layer-bg shadow"/>
  <text x="100" y="265" class="layer-title">🌐 前端展示层 (Frontend Presentation Layer)</text>
  <text x="100" y="285" class="small-text">技术栈: Jinja2 + Bootstrap 5 + Chart.js + 原生JavaScript</text>
  
  <!-- 前端模块卡片 -->
  <g transform="translate(120, 300)">
    <rect x="0" y="0" width="160" height="50" class="frontend-gradient shadow"/>
    <text x="80" y="20" text-anchor="middle" class="white-text">⚡ 挖矿计算器</text>
    <text x="80" y="35" text-anchor="middle" class="tiny-text" fill="rgba(0,0,0,0.8)">Mining Calculator</text>
    <text x="80" y="45" text-anchor="middle" class="tiny-text" fill="rgba(0,0,0,0.6)">10种矿机模型</text>
  </g>
  
  <g transform="translate(300, 300)">
    <rect x="0" y="0" width="160" height="50" class="frontend-gradient shadow"/>
    <text x="80" y="20" text-anchor="middle" class="white-text">👥 CRM系统</text>
    <text x="80" y="35" text-anchor="middle" class="tiny-text" fill="rgba(0,0,0,0.8)">Customer Management</text>
    <text x="80" y="45" text-anchor="middle" class="tiny-text" fill="rgba(0,0,0,0.6)">客户关系管理</text>
  </g>
  
  <g transform="translate(480, 300)">
    <rect x="0" y="0" width="160" height="50" class="frontend-gradient shadow"/>
    <text x="80" y="20" text-anchor="middle" class="white-text">📊 数据分析</text>
    <text x="80" y="35" text-anchor="middle" class="tiny-text" fill="rgba(0,0,0,0.8)">Analytics Dashboard</text>
    <text x="80" y="45" text-anchor="middle" class="tiny-text" fill="rgba(0,0,0,0.6)">Chart.js可视化</text>
  </g>
  
  <g transform="translate(660, 300)">
    <rect x="0" y="0" width="160" height="50" class="frontend-gradient shadow"/>
    <text x="80" y="20" text-anchor="middle" class="white-text">📈 网络分析</text>
    <text x="80" y="35" text-anchor="middle" class="tiny-text" fill="rgba(0,0,0,0.8)">Network Analysis</text>
    <text x="80" y="45" text-anchor="middle" class="tiny-text" fill="rgba(0,0,0,0.6)">历史数据趋势</text>
  </g>
  
  <g transform="translate(840, 300)">
    <rect x="0" y="0" width="160" height="50" class="frontend-gradient shadow"/>
    <text x="80" y="20" text-anchor="middle" class="white-text">🔬 算法测试</text>
    <text x="80" y="35" text-anchor="middle" class="tiny-text" fill="rgba(0,0,0,0.8)">Algorithm Test</text>
    <text x="80" y="45" text-anchor="middle" class="tiny-text" fill="rgba(0,0,0,0.6)">双算法验证</text>
  </g>
  
  <g transform="translate(1020, 300)">
    <rect x="0" y="0" width="160" height="50" class="frontend-gradient shadow"/>
    <text x="80" y="20" text-anchor="middle" class="white-text">🌍 多语言</text>
    <text x="80" y="35" text-anchor="middle" class="tiny-text" fill="rgba(0,0,0,0.8)">i18n Support</text>
    <text x="80" y="45" text-anchor="middle" class="tiny-text" fill="rgba(0,0,0,0.6)">中英文切换</text>
  </g>

  <!-- Flask应用层 -->
  <rect x="80" y="380" width="1240" height="140" class="layer-bg shadow"/>
  <text x="100" y="405" class="layer-title">🐍 Flask应用层 (Application Layer)</text>
  <text x="100" y="425" class="small-text">主控制器: app.py (1900+行代码) - 统一路由管理</text>
  
  <!-- 业务模块 -->
  <g transform="translate(120, 445)">
    <rect x="0" y="0" width="140" height="60" class="backend-gradient shadow"/>
    <text x="70" y="20" text-anchor="middle" class="white-text">🔐 认证系统</text>
    <text x="70" y="35" text-anchor="middle" class="tiny-text" fill="rgba(0,0,0,0.8)">auth.py</text>
    <text x="70" y="50" text-anchor="middle" class="tiny-text" fill="rgba(0,0,0,0.6)">邮箱验证+权限</text>
  </g>
  
  <g transform="translate(280, 445)">
    <rect x="0" y="0" width="140" height="60" class="backend-gradient shadow"/>
    <text x="70" y="20" text-anchor="middle" class="white-text">⚙️ 挖矿引擎</text>
    <text x="70" y="35" text-anchor="middle" class="tiny-text" fill="rgba(0,0,0,0.8)">mining_calculator.py</text>
    <text x="70" y="50" text-anchor="middle" class="tiny-text" fill="rgba(0,0,0,0.6)">双算法计算</text>
  </g>
  
  <g transform="translate(440, 445)">
    <rect x="0" y="0" width="140" height="60" class="backend-gradient shadow"/>
    <text x="70" y="20" text-anchor="middle" class="white-text">🛒 CRM路由</text>
    <text x="70" y="35" text-anchor="middle" class="tiny-text" fill="rgba(0,0,0,0.8)">crm_routes.py</text>
    <text x="70" y="50" text-anchor="middle" class="tiny-text" fill="rgba(0,0,0,0.6)">客户业务逻辑</text>
  </g>
  
  <g transform="translate(600, 445)">
    <rect x="0" y="0" width="140" height="60" class="backend-gradient shadow"/>
    <text x="70" y="20" text-anchor="middle" class="white-text">📊 分析引擎</text>
    <text x="70" y="35" text-anchor="middle" class="tiny-text" fill="rgba(0,0,0,0.8)">analytics_engine.py</text>
    <text x="70" y="50" text-anchor="middle" class="tiny-text" fill="rgba(0,0,0,0.6)">15分钟数据更新</text>
  </g>
  
  <g transform="translate(760, 445)">
    <rect x="0" y="0" width="140" height="60" class="backend-gradient shadow"/>
    <text x="70" y="20" text-anchor="middle" class="white-text">🌐 数据服务</text>
    <text x="70" y="35" text-anchor="middle" class="tiny-text" fill="rgba(0,0,0,0.8)">network_data_service.py</text>
    <text x="70" y="50" text-anchor="middle" class="tiny-text" fill="rgba(0,0,0,0.6)">自动化采集</text>
  </g>
  
  <g transform="translate(920, 445)">
    <rect x="0" y="0" width="140" height="60" class="backend-gradient shadow"/>
    <text x="70" y="20" text-anchor="middle" class="white-text">🌏 翻译系统</text>
    <text x="70" y="35" text-anchor="middle" class="tiny-text" fill="rgba(0,0,0,0.8)">translations.py</text>
    <text x="70" y="50" text-anchor="middle" class="tiny-text" fill="rgba(0,0,0,0.6)">动态语言切换</text>
  </g>

  <!-- 数据存储层 -->
  <rect x="80" y="540" width="1240" height="140" class="layer-bg shadow"/>
  <text x="100" y="565" class="layer-title">🗄️ 数据存储层 (Data Storage Layer)</text>
  <text x="100" y="585" class="small-text">PostgreSQL + SQLAlchemy ORM - 连接池管理 | 10个核心数据表</text>
  
  <!-- 第一行数据表 -->
  <g transform="translate(120, 605)">
    <rect x="0" y="0" width="180" height="70" class="database-gradient shadow"/>
    <text x="90" y="20" text-anchor="middle" class="black-text">👤 UserAccess</text>
    <text x="90" y="35" text-anchor="middle" class="tiny-text">用户权限表</text>
    <text x="90" y="50" text-anchor="middle" class="tiny-text">email, role, access_days</text>
    <text x="90" y="65" text-anchor="middle" class="tiny-text">has_access, created_at</text>
  </g>
  
  <g transform="translate(320, 605)">
    <rect x="0" y="0" width="180" height="70" class="database-gradient shadow"/>
    <text x="90" y="20" text-anchor="middle" class="black-text">🏢 Customer</text>
    <text x="90" y="35" text-anchor="middle" class="tiny-text">客户信息表</text>
    <text x="90" y="50" text-anchor="middle" class="tiny-text">company_name, contact</text>
    <text x="90" y="65" text-anchor="middle" class="tiny-text">email, phone, industry</text>
  </g>
  
  <g transform="translate(520, 605)">
    <rect x="0" y="0" width="180" height="70" class="database-gradient shadow"/>
    <text x="90" y="20" text-anchor="middle" class="black-text">📞 Contact</text>
    <text x="90" y="35" text-anchor="middle" class="tiny-text">联系人表</text>
    <text x="90" y="50" text-anchor="middle" class="tiny-text">first_name, last_name</text>
    <text x="90" y="65" text-anchor="middle" class="tiny-text">position, customer_id</text>
  </g>
  
  <g transform="translate(720, 605)">
    <rect x="0" y="0" width="180" height="70" class="database-gradient shadow"/>
    <text x="90" y="20" text-anchor="middle" class="black-text">🎯 Lead</text>
    <text x="90" y="35" text-anchor="middle" class="tiny-text">商机表</text>
    <text x="90" y="50" text-anchor="middle" class="tiny-text">title, status, value</text>
    <text x="90" y="65" text-anchor="middle" class="tiny-text">probability, close_date</text>
  </g>
  
  <g transform="translate(920, 605)">
    <rect x="0" y="0" width="180" height="70" class="database-gradient shadow"/>
    <text x="90" y="20" text-anchor="middle" class="black-text">💼 Deal</text>
    <text x="90" y="35" text-anchor="middle" class="tiny-text">交易表</text>
    <text x="90" y="50" text-anchor="middle" class="tiny-text">amount, commission</text>
    <text x="90" y="65" text-anchor="middle" class="tiny-text">status, closed_at</text>
  </g>
  
  <g transform="translate(1120, 605)">
    <rect x="0" y="0" width="180" height="70" class="database-gradient shadow"/>
    <text x="90" y="20" text-anchor="middle" class="black-text">📊 Analytics</text>
    <text x="90" y="35" text-anchor="middle" class="tiny-text">市场分析表</text>
    <text x="90" y="50" text-anchor="middle" class="tiny-text">btc_price, hashrate</text>
    <text x="90" y="65" text-anchor="middle" class="tiny-text">difficulty, fear_greed</text>
  </g>

  <!-- 第二行数据表 -->
  <g transform="translate(120, 690)">
    <rect x="0" y="0" width="180" height="70" class="database-gradient shadow"/>
    <text x="90" y="20" text-anchor="middle" class="black-text">📝 Activity</text>
    <text x="90" y="35" text-anchor="middle" class="tiny-text">活动记录表</text>
    <text x="90" y="50" text-anchor="middle" class="tiny-text">type, description</text>
    <text x="90" y="65" text-anchor="middle" class="tiny-text">customer_id, created_by</text>
  </g>
  
  <g transform="translate(320, 690)">
    <rect x="0" y="0" width="180" height="70" class="database-gradient shadow"/>
    <text x="90" y="20" text-anchor="middle" class="black-text">📊 LoginRecord</text>
    <text x="90" y="35" text-anchor="middle" class="tiny-text">登录记录表</text>
    <text x="90" y="50" text-anchor="middle" class="tiny-text">user_email, ip_address</text>
    <text x="90" y="65" text-anchor="middle" class="tiny-text">login_time, location</text>
  </g>
  
  <g transform="translate(520, 690)">
    <rect x="0" y="0" width="180" height="70" class="database-gradient shadow"/>
    <text x="90" y="20" text-anchor="middle" class="black-text">💰 BrokerDeal</text>
    <text x="90" y="35" text-anchor="middle" class="tiny-text">中介交易表</text>
    <text x="90" y="50" text-anchor="middle" class="tiny-text">broker_id, client_id</text>
    <text x="90" y="65" text-anchor="middle" class="tiny-text">commission_rate, status</text>
  </g>
  
  <g transform="translate(720, 690)">
    <rect x="0" y="0" width="180" height="70" class="database-gradient shadow"/>
    <text x="90" y="20" text-anchor="middle" class="black-text">📷 Snapshot</text>
    <text x="90" y="35" text-anchor="middle" class="tiny-text">网络快照表</text>
    <text x="90" y="50" text-anchor="middle" class="tiny-text">timestamp, context</text>
    <text x="90" y="65" text-anchor="middle" class="tiny-text">block_reward, difficulty</text>
  </g>

  <!-- 外部API层 -->
  <rect x="80" y="780" width="1240" height="120" class="layer-bg shadow"/>
  <text x="100" y="805" class="layer-title">🔗 外部API层 (External APIs)</text>
  <text x="100" y="825" class="small-text">智能多源数据策略 - 自动故障转移 | 5个主要数据源</text>
  
  <!-- API服务 -->
  <g transform="translate(120, 845)">
    <rect x="0" y="0" width="220" height="45" class="api-gradient shadow"/>
    <text x="110" y="18" text-anchor="middle" class="black-text">⛏️ CoinWarz API</text>
    <text x="110" y="32" text-anchor="middle" class="tiny-text">专业挖矿数据源 | 剩余731/1000</text>
  </g>
  
  <g transform="translate(360, 845)">
    <rect x="0" y="0" width="220" height="45" class="api-gradient shadow"/>
    <text x="110" y="18" text-anchor="middle" class="black-text">💰 CoinGecko API</text>
    <text x="110" y="32" text-anchor="middle" class="tiny-text">实时BTC价格 | 市场数据备用</text>
  </g>
  
  <g transform="translate(600, 845)">
    <rect x="0" y="0" width="220" height="45" class="api-gradient shadow"/>
    <text x="110" y="18" text-anchor="middle" class="black-text">⛓️ Blockchain.info</text>
    <text x="110" y="32" text-anchor="middle" class="tiny-text">网络难度+算力 | 状态验证</text>
  </g>
  
  <g transform="translate(840, 845)">
    <rect x="0" y="0" width="220" height="45" class="api-gradient shadow"/>
    <text x="110" y="18" text-anchor="middle" class="black-text">📡 Minerstat API</text>
    <text x="110" y="32" text-anchor="middle" class="tiny-text">实时算力936EH/s | 智能故障转移</text>
  </g>
  
  <g transform="translate(1080, 845)">
    <rect x="0" y="0" width="220" height="45" class="api-gradient shadow"/>
    <text x="110" y="18" text-anchor="middle" class="black-text">🌍 IP-API</text>
    <text x="110" y="32" text-anchor="middle" class="tiny-text">地理位置 | 登录追踪</text>
  </g>

  <!-- 基础设施层 -->
  <rect x="80" y="920" width="1240" height="80" class="layer-bg shadow"/>
  <text x="100" y="945" class="layer-title">🏗️ 基础设施层 (Infrastructure Layer)</text>
  <text x="100" y="965" class="small-text">生产环境部署 - 高可用性架构 | Replit平台托管</text>
  
  <!-- 基础设施组件 -->
  <g transform="translate(150, 975)">
    <rect x="0" y="0" width="240" height="20" class="infra-gradient shadow"/>
    <text x="120" y="14" text-anchor="middle" class="black-text">🚀 Gunicorn WSGI Server</text>
  </g>
  
  <g transform="translate(410, 975)">
    <rect x="0" y="0" width="240" height="20" class="infra-gradient shadow"/>
    <text x="120" y="14" text-anchor="middle" class="black-text">🔗 SQLAlchemy ORM</text>
  </g>
  
  <g transform="translate(670, 975)">
    <rect x="0" y="0" width="240" height="20" class="infra-gradient shadow"/>
    <text x="120" y="14" text-anchor="middle" class="black-text">⏰ 统一数据管道</text>
  </g>
  
  <g transform="translate(930, 975)">
    <rect x="0" y="0" width="240" height="20" class="infra-gradient shadow"/>
    <text x="120" y="14" text-anchor="middle" class="black-text">📅 定时任务调度</text>
  </g>

  <!-- 数据流连接线 -->
  <line x1="700" y1="220" x2="700" y2="240" class="connector"/>
  <line x1="700" y1="360" x2="700" y2="380" class="connector"/>
  <line x1="700" y1="520" x2="700" y2="540" class="connector"/>
  <line x1="700" y1="775" x2="700" y2="780" class="connector"/>
  <line x1="700" y1="915" x2="700" y2="920" class="connector"/>

  <!-- 系统特性和状态信息 -->
  <g transform="translate(100, 1020)">
    <rect x="0" y="0" width="1200" height="80" fill="white" stroke="#2d3748" stroke-width="2" rx="10" class="shadow"/>
    <text x="20" y="25" class="text">💡 系统特性:</text>
    <text x="20" y="45" class="small-text">✅ 99.9%高可用性 ✅ 5级权限控制 ✅ 多源API冗余 ✅ 实时数据更新 ✅ 智能故障转移 ✅ 双语言支持</text>
    <text x="20" y="65" class="small-text">✅ 10种矿机模型 ✅ 10个数据表 ✅ 6个前端模块 ✅ 6个后端服务 ✅ 5个外部API</text>
    
    <text x="500" y="25" class="text">🔄 数据流说明:</text>
    <line x1="620" y1="20" x2="660" y2="20" class="connector"/>
    <text x="670" y="25" class="small-text">系统调用</text>
    <line x1="620" y1="40" x2="660" y2="40" class="data-flow"/>
    <text x="670" y="45" class="small-text">数据流</text>
    
    <text x="800" y="25" class="text">🎯 实时状态:</text>
    <text x="800" y="45" class="small-text">BTC $109,154 | 算力 936.06 EH/s | 恐惧贪婪指数 73</text>
    <text x="800" y="65" class="small-text">CoinWarz API: 730/1000 | 系统运行时间: 正常 | 数据收集: 活跃</text>
  </g>

  <!-- 背景渐变定义 -->
  <defs>
    <linearGradient id="bgGrad" x1="0%" y1="0%" x2="100%" y2="100%">
      <stop offset="0%" style="stop-color:#f8fafc;stop-opacity:1" />
      <stop offset="100%" style="stop-color:#e2e8f0;stop-opacity:1" />
    </linearGradient>
  </defs>

</svg>