<?xml version="1.0" encoding="UTF-8"?>
<svg width="1000" height="700" viewBox="0 0 1000 700" xmlns="http://www.w3.org/2000/svg">
  <defs>
    <linearGradient id="userGradient" x1="0%" y1="0%" x2="100%" y2="100%">
      <stop offset="0%" style="stop-color:#4f46e5;stop-opacity:1" />
      <stop offset="100%" style="stop-color:#7c3aed;stop-opacity:1" />
    </linearGradient>
    <linearGradient id="webGradient" x1="0%" y1="0%" x2="100%" y2="100%">
      <stop offset="0%" style="stop-color:#059669;stop-opacity:1" />
      <stop offset="100%" style="stop-color:#0d9488;stop-opacity:1" />
    </linearGradient>
    <linearGradient id="coreGradient" x1="0%" y1="0%" x2="100%" y2="100%">
      <stop offset="0%" style="stop-color:#dc2626;stop-opacity:1" />
      <stop offset="100%" style="stop-color:#ea580c;stop-opacity:1" />
    </linearGradient>
    <linearGradient id="dataGradient" x1="0%" y1="0%" x2="100%" y2="100%">
      <stop offset="0%" style="stop-color:#1e40af;stop-opacity:1" />
      <stop offset="100%" style="stop-color:#1d4ed8;stop-opacity:1" />
    </linearGradient>
    <linearGradient id="apiGradient" x1="0%" y1="0%" x2="100%" y2="100%">
      <stop offset="0%" style="stop-color:#f59e0b;stop-opacity:1" />
      <stop offset="100%" style="stop-color:#d97706;stop-opacity:1" />
    </linearGradient>
    <filter id="dropShadow" x="-50%" y="-50%" width="200%" height="200%">
      <feDropShadow dx="3" dy="3" stdDeviation="4" flood-opacity="0.3"/>
    </filter>
  </defs>

  <!-- Background -->
  <rect width="1000" height="700" fill="#f8fafc"/>
  
  <!-- Title -->
  <rect x="200" y="20" width="600" height="50" fill="#1f2937" rx="5"/>
  <text x="500" y="35" text-anchor="middle" fill="white" font-family="Arial, sans-serif" font-size="18" font-weight="bold">
    Bitcoin Mining Calculator Architecture
  </text>
  <text x="500" y="55" text-anchor="middle" fill="#9ca3af" font-family="Arial, sans-serif" font-size="12">
    Production System - 95.8% Perfection Score
  </text>

  <!-- Layer 1: User Interface -->
  <rect x="100" y="100" width="800" height="80" fill="url(#userGradient)" rx="8" filter="url(#dropShadow)"/>
  <text x="150" y="125" fill="white" font-family="Arial, sans-serif" font-size="14" font-weight="bold">用户界面层</text>
  <text x="150" y="145" fill="white" font-family="Arial, sans-serif" font-size="11">User Interface Layer</text>
  
  <!-- UI Components -->
  <rect x="250" y="115" width="120" height="25" fill="rgba(255,255,255,0.2)" rx="3"/>
  <text x="310" y="130" text-anchor="middle" fill="white" font-family="Arial, sans-serif" font-size="10">挖矿计算器界面</text>
  
  <rect x="380" y="115" width="120" height="25" fill="rgba(255,255,255,0.2)" rx="3"/>
  <text x="440" y="130" text-anchor="middle" fill="white" font-family="Arial, sans-serif" font-size="10">CRM管理系统</text>
  
  <rect x="510" y="115" width="120" height="25" fill="rgba(255,255,255,0.2)" rx="3"/>
  <text x="570" y="130" text-anchor="middle" fill="white" font-family="Arial, sans-serif" font-size="10">中英文切换</text>
  
  <rect x="640" y="115" width="120" height="25" fill="rgba(255,255,255,0.2)" rx="3"/>
  <text x="700" y="130" text-anchor="middle" fill="white" font-family="Arial, sans-serif" font-size="10">实时数据展示</text>
  
  <rect x="250" y="150" width="120" height="25" fill="rgba(255,255,255,0.2)" rx="3"/>
  <text x="310" y="165" text-anchor="middle" fill="white" font-family="Arial, sans-serif" font-size="10">Bootstrap 5</text>
  
  <rect x="380" y="150" width="120" height="25" fill="rgba(255,255,255,0.2)" rx="3"/>
  <text x="440" y="165" text-anchor="middle" fill="white" font-family="Arial, sans-serif" font-size="10">Chart.js 图表</text>
  
  <rect x="510" y="150" width="120" height="25" fill="rgba(255,255,255,0.2)" rx="3"/>
  <text x="570" y="165" text-anchor="middle" fill="white" font-family="Arial, sans-serif" font-size="10">响应式设计</text>
  
  <rect x="640" y="150" width="120" height="25" fill="rgba(255,255,255,0.2)" rx="3"/>
  <text x="700" y="165" text-anchor="middle" fill="white" font-family="Arial, sans-serif" font-size="10">ROI可视化</text>

  <!-- Layer 2: Web Application -->
  <rect x="100" y="220" width="800" height="80" fill="url(#webGradient)" rx="8" filter="url(#dropShadow)"/>
  <text x="150" y="245" fill="white" font-family="Arial, sans-serif" font-size="14" font-weight="bold">Web应用层</text>
  <text x="150" y="265" fill="white" font-family="Arial, sans-serif" font-size="11">Flask Web Application</text>
  
  <!-- Web Components -->
  <rect x="250" y="235" width="120" height="25" fill="rgba(255,255,255,0.2)" rx="3"/>
  <text x="310" y="250" text-anchor="middle" fill="white" font-family="Arial, sans-serif" font-size="10">路由管理</text>
  
  <rect x="380" y="235" width="120" height="25" fill="rgba(255,255,255,0.2)" rx="3"/>
  <text x="440" y="250" text-anchor="middle" fill="white" font-family="Arial, sans-serif" font-size="10">会话管理</text>
  
  <rect x="510" y="235" width="120" height="25" fill="rgba(255,255,255,0.2)" rx="3"/>
  <text x="570" y="250" text-anchor="middle" fill="white" font-family="Arial, sans-serif" font-size="10">身份验证</text>
  
  <rect x="640" y="235" width="120" height="25" fill="rgba(255,255,255,0.2)" rx="3"/>
  <text x="700" y="250" text-anchor="middle" fill="white" font-family="Arial, sans-serif" font-size="10">API端点</text>
  
  <rect x="250" y="270" width="120" height="25" fill="rgba(255,255,255,0.2)" rx="3"/>
  <text x="310" y="285" text-anchor="middle" fill="white" font-family="Arial, sans-serif" font-size="10">模板渲染</text>
  
  <rect x="380" y="270" width="120" height="25" fill="rgba(255,255,255,0.2)" rx="3"/>
  <text x="440" y="285" text-anchor="middle" fill="white" font-family="Arial, sans-serif" font-size="10">错误处理</text>
  
  <rect x="510" y="270" width="120" height="25" fill="rgba(255,255,255,0.2)" rx="3"/>
  <text x="570" y="285" text-anchor="middle" fill="white" font-family="Arial, sans-serif" font-size="10">多语言支持</text>
  
  <rect x="640" y="270" width="120" height="25" fill="rgba(255,255,255,0.2)" rx="3"/>
  <text x="700" y="285" text-anchor="middle" fill="white" font-family="Arial, sans-serif" font-size="10">安全防护</text>

  <!-- Layer 3: Core Business Logic -->
  <rect x="100" y="340" width="800" height="100" fill="url(#coreGradient)" rx="8" filter="url(#dropShadow)"/>
  <text x="150" y="365" fill="white" font-family="Arial, sans-serif" font-size="14" font-weight="bold">核心业务层</text>
  <text x="150" y="385" fill="white" font-family="Arial, sans-serif" font-size="11">Core Business Logic</text>
  
  <!-- Core Components -->
  <rect x="200" y="400" width="150" height="30" fill="rgba(255,255,255,0.2)" rx="3"/>
  <text x="275" y="420" text-anchor="middle" fill="white" font-family="Arial, sans-serif" font-size="11">双算法计算引擎</text>
  
  <rect x="370" y="400" width="150" height="30" fill="rgba(255,255,255,0.2)" rx="3"/>
  <text x="445" y="420" text-anchor="middle" fill="white" font-family="Arial, sans-serif" font-size="11">CRM业务管理</text>
  
  <rect x="540" y="400" width="150" height="30" fill="rgba(255,255,255,0.2)" rx="3"/>
  <text x="615" y="420" text-anchor="middle" fill="white" font-family="Arial, sans-serif" font-size="11">网络数据收集</text>
  
  <rect x="710" y="400" width="150" height="30" fill="rgba(255,255,255,0.2)" rx="3"/>
  <text x="785" y="420" text-anchor="middle" fill="white" font-family="Arial, sans-serif" font-size="11">ROI分析系统</text>

  <!-- Layer 4: Data Layer -->
  <rect x="100" y="480" width="600" height="80" fill="url(#dataGradient)" rx="8" filter="url(#dropShadow)"/>
  <text x="150" y="505" fill="white" font-family="Arial, sans-serif" font-size="14" font-weight="bold">数据存储层</text>
  <text x="150" y="525" fill="white" font-family="Arial, sans-serif" font-size="11">PostgreSQL Database</text>
  
  <!-- Database Tables -->
  <rect x="250" y="495" width="80" height="25" fill="rgba(255,255,255,0.2)" rx="3"/>
  <text x="290" y="510" text-anchor="middle" fill="white" font-family="Arial, sans-serif" font-size="9">用户表 (7)</text>
  
  <rect x="340" y="495" width="80" height="25" fill="rgba(255,255,255,0.2)" rx="3"/>
  <text x="380" y="510" text-anchor="middle" fill="white" font-family="Arial, sans-serif" font-size="9">CRM表 (9)</text>
  
  <rect x="430" y="495" width="80" height="25" fill="rgba(255,255,255,0.2)" rx="3"/>
  <text x="470" y="510" text-anchor="middle" fill="white" font-family="Arial, sans-serif" font-size="9">网络数据 (77)</text>
  
  <rect x="520" y="495" width="80" height="25" fill="rgba(255,255,255,0.2)" rx="3"/>
  <text x="560" y="510" text-anchor="middle" fill="white" font-family="Arial, sans-serif" font-size="9">登录记录 (187)</text>
  
  <rect x="610" y="495" width="80" height="25" fill="rgba(255,255,255,0.2)" rx="3"/>
  <text x="650" y="510" text-anchor="middle" fill="white" font-family="Arial, sans-serif" font-size="9">佣金记录</text>
  
  <rect x="250" y="530" width="200" height="25" fill="rgba(255,255,255,0.2)" rx="3"/>
  <text x="350" y="545" text-anchor="middle" fill="white" font-family="Arial, sans-serif" font-size="10">连接池优化 + 自动备份</text>
  
  <rect x="460" y="530" width="200" height="25" fill="rgba(255,255,255,0.2)" rx="3"/>
  <text x="560" y="545" text-anchor="middle" fill="white" font-family="Arial, sans-serif" font-size="10">总记录数: 282+ 条</text>

  <!-- Layer 5: External APIs -->
  <rect x="720" y="480" width="180" height="80" fill="url(#apiGradient)" rx="8" filter="url(#dropShadow)"/>
  <text x="770" y="505" fill="white" font-family="Arial, sans-serif" font-size="14" font-weight="bold">外部API</text>
  <text x="770" y="525" fill="white" font-family="Arial, sans-serif" font-size="11">External APIs</text>
  
  <!-- API Services -->
  <rect x="730" y="535" width="80" height="20" fill="rgba(255,255,255,0.3)" rx="3"/>
  <text x="770" y="547" text-anchor="middle" fill="white" font-family="Arial, sans-serif" font-size="9">CoinGecko ✓</text>
  
  <rect x="815" y="535" width="80" height="20" fill="rgba(255,255,255,0.3)" rx="3"/>
  <text x="855" y="547" text-anchor="middle" fill="white" font-family="Arial, sans-serif" font-size="9">Blockchain ✓</text>

  <!-- Data Flow Arrows -->
  <defs>
    <marker id="arrow" markerWidth="10" markerHeight="10" refX="9" refY="3" orient="auto" markerUnits="strokeWidth">
      <path d="M0,0 L0,6 L9,3 z" fill="#374151"/>
    </marker>
  </defs>
  
  <!-- Flow lines -->
  <line x1="500" y1="180" x2="500" y2="220" stroke="#374151" stroke-width="2" marker-end="url(#arrow)"/>
  <line x1="500" y1="300" x2="500" y2="340" stroke="#374151" stroke-width="2" marker-end="url(#arrow)"/>
  <line x1="500" y1="440" x2="500" y2="480" stroke="#374151" stroke-width="2" marker-end="url(#arrow)"/>
  <line x1="720" y1="520" x2="700" y2="440" stroke="#374151" stroke-width="2" marker-end="url(#arrow)"/>

  <!-- Status Panel -->
  <rect x="100" y="600" width="800" height="80" fill="#f1f5f9" stroke="#e5e7eb" rx="8"/>
  <text x="500" y="620" text-anchor="middle" font-family="Arial, sans-serif" font-size="14" font-weight="bold">系统状态 System Status</text>
  
  <rect x="120" y="635" width="150" height="35" fill="#22c55e" rx="3"/>
  <text x="195" y="650" text-anchor="middle" fill="white" font-family="Arial, sans-serif" font-size="11">运行状态: 正常</text>
  <text x="195" y="662" text-anchor="middle" fill="white" font-family="Arial, sans-serif" font-size="9">95.8% 完美度</text>
  
  <rect x="280" y="635" width="150" height="35" fill="#3b82f6" rx="3"/>
  <text x="355" y="650" text-anchor="middle" fill="white" font-family="Arial, sans-serif" font-size="11">BTC: $103,563</text>
  <text x="355" y="662" text-anchor="middle" fill="white" font-family="Arial, sans-serif" font-size="9">实时价格更新</text>
  
  <rect x="440" y="635" width="150" height="35" fill="#8b5cf6" rx="3"/>
  <text x="515" y="650" text-anchor="middle" fill="white" font-family="Arial, sans-serif" font-size="11">ROI: 175.57%</text>
  <text x="515" y="662" text-anchor="middle" fill="white" font-family="Arial, sans-serif" font-size="9">年化收益率</text>
  
  <rect x="600" y="635" width="150" height="35" fill="#ef4444" rx="3"/>
  <text x="675" y="650" text-anchor="middle" fill="white" font-family="Arial, sans-serif" font-size="11">活跃用户: 7</text>
  <text x="675" y="662" text-anchor="middle" fill="white" font-family="Arial, sans-serif" font-size="9">187次登录</text>
  
  <rect x="760" y="635" width="130" height="35" fill="#059669" rx="3"/>
  <text x="825" y="650" text-anchor="middle" fill="white" font-family="Arial, sans-serif" font-size="11">部署就绪</text>
  <text x="825" y="662" text-anchor="middle" fill="white" font-family="Arial, sans-serif" font-size="9">生产级系统</text>

  <!-- Data flow labels -->
  <text x="520" y="200" font-family="Arial, sans-serif" font-size="10" fill="#6b7280">用户交互</text>
  <text x="520" y="320" font-family="Arial, sans-serif" font-size="10" fill="#6b7280">业务处理</text>
  <text x="520" y="460" font-family="Arial, sans-serif" font-size="10" fill="#6b7280">数据存储</text>
  <text x="640" y="460" font-family="Arial, sans-serif" font-size="10" fill="#6b7280">外部数据</text>
</svg>